# xmcd
#
# Track frame offsets:
#	150
#	15274
#	30341
#	41529
#	54886
#	64345
#	79695
#	93860
#	108872
#	123835
#	137282
#	150344
#	162717
#	174425
#	188635
#	203919
#	217306
#	231068
#	243292
#	258527
#
# Disc length: 3609 seconds
#
# Revision: 1
# Processed by: cddbd v1.5.2PL0 Copyright (c) Steve Scherf et al.
# Submitted via: EasyCDDAExtractor 10.0.3.1
#
DISCID=f70e1714
DTITLE=Various Artist - 100 Chansons Formidables [CD2)
DYEAR=2005
DGENRE=Chanson
TTITLE0=Charles Trénet - La Mer
TTITLE1=Juliette Greco - Coin De Rue
TTITLE2=Charles Aznavour and Pierre Roche - La Feutre Taupe
TTITLE3=Patachou - Les Amoureux Des Bancs Publics
TTITLE4=Georges Brassens - La Chasse Aux Papillons
TTITLE5=Juliette Greco - Sous Le Ciel De Paris
TTITLE6=Félix Leclerc - Le Petit Bonheur
TTITLE7=Les Freres Jacques - Ballade Des Places De Paris
TTITLE8=Danielle Darrieux - Le Premier Rendez-Vous
TTITLE9=Catherine Sauvage - La Complainte Des Infidèles
TTITLE10=Charles Aznavour - Jezebel
TTITLE11=Henri Salvador - Le Scaphandrier
TTITLE12=Jean Sablon - Rendez-Vous Sous La Pluie
TTITLE13=Gilbert Bécaud - La Ballade Des Baladins
TTITLE14=Jacques Brel - La Foire
TTITLE15=Catherine Sauvage - Il N'y A Pas D'Amour Heureux
TTITLE16=Georges Brassens - Chansons Pour L'Auvergnat
TTITLE17=Charles Aznavour - A Te Regarder
TTITLE18=Lucienne Delyle - Sur Les Quais Du Vieux Paris
TTITLE19=Yves Montand - Sanguine
EXTD=YEAR: 2005
EXTT0=
EXTT1=
EXTT2=
EXTT3=
EXTT4=
EXTT5=
EXTT6=
EXTT7=
EXTT8=
EXTT9=
EXTT10=
EXTT11=
EXTT12=
EXTT13=
EXTT14=
EXTT15=
EXTT16=
EXTT17=
EXTT18=
EXTT19=
PLAYORDER=
